<svg xmlns="http://www.w3.org/2000/svg" viewBox="0 0 139.24 22.43"><g style="isolation:isolate"><g opacity="0.2" style="mix-blend-mode:multiply"><polygon points="48.38 7.07 42.71 22.59 38.22 22.59 32.55 7.07 36.76 7.07 40.5 17.98 44.24 7.07 48.38 7.07"/><path d="M61.18,16.73a6.12,6.12,0,0,1-1.68,4.55,6.41,6.41,0,0,1-4.74,1.65A6.53,6.53,0,0,1,50,21.28a6.08,6.08,0,0,1-1.68-4.55A6.19,6.19,0,0,1,50,12.15a6.38,6.38,0,0,1,4.7-1.65,6.38,6.38,0,0,1,4.74,1.68A6.19,6.19,0,0,1,61.18,16.73ZM56.57,19.6a3.32,3.32,0,0,0,.56-1.09,7.82,7.82,0,0,0,.19-1.75A7.93,7.93,0,0,0,57.13,15a3,3,0,0,0-.53-1.12,2,2,0,0,0-.81-.6,2.76,2.76,0,0,0-1-.18,2.6,2.6,0,0,0-1,.15,2,2,0,0,0-.81.59A3.73,3.73,0,0,0,52.46,15a5.63,5.63,0,0,0-.19,1.77,7,7,0,0,0,.19,1.65A2.77,2.77,0,0,0,53,19.53a2.29,2.29,0,0,0,.81.6,3.11,3.11,0,0,0,1.06.18,3.38,3.38,0,0,0,1-.15A2.13,2.13,0,0,0,56.57,19.6Z"/><path d="M71.18,14.46h-.34a2.83,2.83,0,0,0-.78-.13c-.34,0-.66,0-.87,0a12,12,0,0,0-1.44.09,9.2,9.2,0,0,0-1.3.35v7.85H62.68V10.87h3.77v1.72a7.54,7.54,0,0,1,2.14-1.4,4.52,4.52,0,0,1,1.69-.35h.43c.16,0,.31,0,.44,0Z"/><path d="M79.22,21.34l-.75.56a5.3,5.3,0,0,1-.84.5,6.7,6.7,0,0,1-1.15.37,5.88,5.88,0,0,1-1.31.13,4.06,4.06,0,0,1-2.81-1,3.38,3.38,0,0,1-1.12-2.65,3.53,3.53,0,0,1,.56-2.08,3.85,3.85,0,0,1,1.62-1.28A10.63,10.63,0,0,1,76,15.17c1-.12,2.09-.21,3.21-.28v-.06a1.35,1.35,0,0,0-.78-1.34,6,6,0,0,0-2.34-.37,6.13,6.13,0,0,0-2,.31c-.72.22-1.22.37-1.53.5h-.34V11.12c.4-.09,1-.21,1.93-.37a15.14,15.14,0,0,1,2.68-.22,8.23,8.23,0,0,1,4.61,1,3.52,3.52,0,0,1,1.43,3.08v8h-3.7V21.34Zm0-1.81V17.1l-1.65.16a5.88,5.88,0,0,0-1.34.25,1.9,1.9,0,0,0-.88.53,1.17,1.17,0,0,0-.28.87,3.81,3.81,0,0,0,.07.59.85.85,0,0,0,.31.44,1.41,1.41,0,0,0,.56.31,2.86,2.86,0,0,0,1.06.09,3.71,3.71,0,0,0,1.15-.21A3.85,3.85,0,0,0,79.22,19.53Z"/><path d="M101.64,14.83a7.35,7.35,0,0,1-1,3.89,7.53,7.53,0,0,1-2.49,2.65,8.12,8.12,0,0,1-2.5,1,18.94,18.94,0,0,1-3.2.28H87V7.07h5.64a14.34,14.34,0,0,1,3.27.32,7.5,7.5,0,0,1,2.31.9,7,7,0,0,1,2.52,2.65A7.66,7.66,0,0,1,101.64,14.83Zm-4.14,0a5.41,5.41,0,0,0-.56-2.62,4,4,0,0,0-1.77-1.71,4.7,4.7,0,0,0-1.25-.41A13.89,13.89,0,0,0,92,9.94H91v9.75h1a12.27,12.27,0,0,0,2.09-.12A4.29,4.29,0,0,0,97,17.38,6,6,0,0,0,97.5,14.8Z"/><path d="M114.82,17.42h-8.6a2.76,2.76,0,0,0,1.06,2.11,4.61,4.61,0,0,0,2.84.72,6.57,6.57,0,0,0,2.3-.44,6.14,6.14,0,0,0,1.75-.93h.4v3a17.09,17.09,0,0,1-2.4.75,11.48,11.48,0,0,1-2.49.22,8.14,8.14,0,0,1-5.39-1.59,5.62,5.62,0,0,1-1.87-4.52,6,6,0,0,1,1.78-4.58,6.77,6.77,0,0,1,4.86-1.68,5.86,5.86,0,0,1,4.3,1.43,5.62,5.62,0,0,1,1.43,4.15Zm-3.74-2.18a2.59,2.59,0,0,0-.59-1.78,2.17,2.17,0,0,0-1.71-.59,2.73,2.73,0,0,0-1.78.56,2.44,2.44,0,0,0-.78,1.81Z"/><path d="M126.47,18.88a3.47,3.47,0,0,1-1.62,2.93,7.69,7.69,0,0,1-4.45,1.12,14.17,14.17,0,0,1-2.84-.28,11.65,11.65,0,0,1-2-.66V18.91h.34l.65.44a8.53,8.53,0,0,0,1.06.5,7.28,7.28,0,0,0,1.31.4,5.38,5.38,0,0,0,1.59.16,4.17,4.17,0,0,0,1.62-.25.78.78,0,0,0,.53-.72.64.64,0,0,0-.31-.62,4.24,4.24,0,0,0-1.19-.38L120,18.23a12.79,12.79,0,0,1-1.31-.28,4.52,4.52,0,0,1-2.36-1.31,3.2,3.2,0,0,1-.78-2.18,3.35,3.35,0,0,1,1.59-2.81,7.52,7.52,0,0,1,4.36-1.12,12,12,0,0,1,2.52.28,9.63,9.63,0,0,1,1.87.56v3h-.31a7.45,7.45,0,0,0-1.9-.93,7.26,7.26,0,0,0-2.15-.38,3.82,3.82,0,0,0-1.53.25c-.4.16-.62.41-.62.72a.76.76,0,0,0,.28.62,3.9,3.9,0,0,0,1.31.44c.37.09.81.15,1.24.22a9.7,9.7,0,0,1,1.34.28,4.19,4.19,0,0,1,2.18,1.21A3.06,3.06,0,0,1,126.47,18.88Z"/><path d="M140.24,22.59h-4.36l-3.3-5.08-1,1.25v3.83h-3.77V6.36h3.77v9.69l4-5.18h4.36l-4.21,5.05Z"/><polygon points="15.42 14.58 18.91 14.58 20.66 17.6 18.91 20.62 15.42 20.62 13.68 17.6 15.42 14.58"/><polygon points="15.42 3.8 18.91 3.8 20.66 6.83 18.91 9.85 15.42 9.85 13.68 6.83 15.42 3.8"/><polygon points="5.86 9.19 9.38 9.19 11.09 12.21 9.38 15.23 5.86 15.23 4.15 12.21 5.86 9.19"/><path d="M24.92,5.42a2.12,2.12,0,0,0-1.55-.68,1.71,1.71,0,0,0-.66.12L20.62,1.22A.4.4,0,0,0,20.28,1H14.05a.38.38,0,0,0-.34.22L10.59,6.61a.47.47,0,0,0,0,.4l3,5.2-2.86,5h-6l-2.87-5,2-3.48A2.1,2.1,0,1,0,2.87,6a2.17,2.17,0,0,0,.37,2.31L1.06,12c-.06,0-.06.12-.06.18a.55.55,0,0,0,.06.22l3.12,5.39a.42.42,0,0,0,.37.22h6.17l3,5.17a.44.44,0,0,0,.37.22h6.23a.41.41,0,0,0,.35-.22l3.08-5.39a.47.47,0,0,0,0-.4L20.62,12a.41.41,0,0,0-.37-.22H14.3l-2.86-5,2.86-5H20l2,3.43a2.05,2.05,0,1,0,2.89.18ZM20,12.62l2.87,5-2.87,5H14.3l-2.86-5,2.86-5Z"/></g><polygon points="47.38 6.07 41.71 21.59 37.22 21.59 31.55 6.07 35.76 6.07 39.5 16.98 43.24 6.07 47.38 6.07" fill="#fff"/><path d="M60.18,15.73a6.12,6.12,0,0,1-1.68,4.55,6.41,6.41,0,0,1-4.74,1.65A6.53,6.53,0,0,1,49,20.28a6.08,6.08,0,0,1-1.68-4.55A6.19,6.19,0,0,1,49,11.15a6.38,6.38,0,0,1,4.7-1.65,6.38,6.38,0,0,1,4.74,1.68A6.19,6.19,0,0,1,60.18,15.73ZM55.57,18.6a3.32,3.32,0,0,0,.56-1.09,7.82,7.82,0,0,0,.19-1.75A7.93,7.93,0,0,0,56.13,14a3,3,0,0,0-.53-1.12,2,2,0,0,0-.81-.6,2.76,2.76,0,0,0-1-.18,2.6,2.6,0,0,0-1,.15,2,2,0,0,0-.81.59A3.73,3.73,0,0,0,51.46,14a5.63,5.63,0,0,0-.19,1.77,7,7,0,0,0,.19,1.65A2.77,2.77,0,0,0,52,18.53a2.29,2.29,0,0,0,.81.6,3.11,3.11,0,0,0,1.06.18,3.38,3.38,0,0,0,1-.15A2.13,2.13,0,0,0,55.57,18.6Z" fill="#fff"/><path d="M70.18,13.46h-.34a2.83,2.83,0,0,0-.78-.13c-.34,0-.66,0-.87,0a12,12,0,0,0-1.44.09,9.2,9.2,0,0,0-1.3.35v7.85H61.68V9.87h3.77v1.72a7.54,7.54,0,0,1,2.14-1.4,4.52,4.52,0,0,1,1.69-.35h.43c.16,0,.31,0,.44,0Z" fill="#fff"/><path d="M78.22,20.34l-.75.56a5.3,5.3,0,0,1-.84.5,6.7,6.7,0,0,1-1.15.37,5.88,5.88,0,0,1-1.31.13,4.06,4.06,0,0,1-2.81-1,3.38,3.38,0,0,1-1.12-2.65,3.53,3.53,0,0,1,.56-2.08,3.85,3.85,0,0,1,1.62-1.28A10.63,10.63,0,0,1,75,14.17c1-.12,2.09-.21,3.21-.28v-.06a1.35,1.35,0,0,0-.78-1.34,6,6,0,0,0-2.34-.37,6.13,6.13,0,0,0-2,.31c-.72.22-1.22.37-1.53.5h-.34V10.12c.4-.09,1-.21,1.93-.37a15.14,15.14,0,0,1,2.68-.22,8.23,8.23,0,0,1,4.61,1,3.52,3.52,0,0,1,1.43,3.08v8h-3.7V20.34Zm0-1.81V16.1l-1.65.16a5.88,5.88,0,0,0-1.34.25,1.9,1.9,0,0,0-.88.53,1.17,1.17,0,0,0-.28.87,3.81,3.81,0,0,0,.07.59.85.85,0,0,0,.31.44,1.41,1.41,0,0,0,.56.31,2.86,2.86,0,0,0,1.06.09,3.71,3.71,0,0,0,1.15-.21A3.85,3.85,0,0,0,78.22,18.53Z" fill="#fff"/><path d="M100.64,13.83a7.35,7.35,0,0,1-1,3.89,7.53,7.53,0,0,1-2.49,2.65,8.12,8.12,0,0,1-2.5,1,18.94,18.94,0,0,1-3.2.28H86V6.07h5.64a14.34,14.34,0,0,1,3.27.32,7.5,7.5,0,0,1,2.31.9,7,7,0,0,1,2.52,2.65A7.66,7.66,0,0,1,100.64,13.83Zm-4.14,0a5.41,5.41,0,0,0-.56-2.62,4,4,0,0,0-1.77-1.71,4.7,4.7,0,0,0-1.25-.41A13.89,13.89,0,0,0,91,8.94H90v9.75h1a12.27,12.27,0,0,0,2.09-.12A4.29,4.29,0,0,0,96,16.38,6,6,0,0,0,96.5,13.8Z" fill="#c51720"/><path d="M113.82,16.42h-8.6a2.76,2.76,0,0,0,1.06,2.11,4.61,4.61,0,0,0,2.84.72,6.57,6.57,0,0,0,2.3-.44,6.14,6.14,0,0,0,1.75-.93h.4v3a17.09,17.09,0,0,1-2.4.75,11.48,11.48,0,0,1-2.49.22,8.14,8.14,0,0,1-5.39-1.59,5.62,5.62,0,0,1-1.87-4.52,6,6,0,0,1,1.78-4.58,6.77,6.77,0,0,1,4.86-1.68,5.86,5.86,0,0,1,4.3,1.43,5.62,5.62,0,0,1,1.43,4.15Zm-3.74-2.18a2.59,2.59,0,0,0-.59-1.78,2.17,2.17,0,0,0-1.71-.59,2.73,2.73,0,0,0-1.78.56,2.44,2.44,0,0,0-.78,1.81Z" fill="#c51720"/><path d="M125.47,17.88a3.47,3.47,0,0,1-1.62,2.93,7.69,7.69,0,0,1-4.45,1.12,14.17,14.17,0,0,1-2.84-.28,11.65,11.65,0,0,1-2-.66V17.91h.34l.65.44a8.53,8.53,0,0,0,1.06.5,7.28,7.28,0,0,0,1.31.4,5.38,5.38,0,0,0,1.59.16,4.17,4.17,0,0,0,1.62-.25.78.78,0,0,0,.53-.72.64.64,0,0,0-.31-.62,4.24,4.24,0,0,0-1.19-.38L119,17.23a12.79,12.79,0,0,1-1.31-.28,4.52,4.52,0,0,1-2.36-1.31,3.2,3.2,0,0,1-.78-2.18,3.35,3.35,0,0,1,1.59-2.81,7.52,7.52,0,0,1,4.36-1.12,12,12,0,0,1,2.52.28,9.63,9.63,0,0,1,1.87.56v3h-.31a7.45,7.45,0,0,0-1.9-.93,7.26,7.26,0,0,0-2.15-.38,3.82,3.82,0,0,0-1.53.25c-.4.16-.62.41-.62.72a.76.76,0,0,0,.28.62,3.9,3.9,0,0,0,1.31.44c.37.09.81.15,1.24.22a9.7,9.7,0,0,1,1.34.28,4.19,4.19,0,0,1,2.18,1.21A3.06,3.06,0,0,1,125.47,17.88Z" fill="#c51720"/><path d="M139.24,21.59h-4.36l-3.3-5.08-1,1.25v3.83h-3.77V5.36h3.77v9.69l4-5.18h4.36l-4.21,5.05Z" fill="#c51720"/><polygon points="14.42 13.58 17.91 13.58 19.66 16.6 17.91 19.62 14.42 19.62 12.68 16.6 14.42 13.58" fill="#1b52bf"/><polygon points="14.42 2.8 17.91 2.8 19.66 5.83 17.91 8.85 14.42 8.85 12.68 5.83 14.42 2.8" fill="#eaaa00"/><polygon points="4.86 8.19 8.38 8.19 10.09 11.21 8.38 14.23 4.86 14.23 3.15 11.21 4.86 8.19" fill="#c51720"/><path d="M23.92,4.42a2.12,2.12,0,0,0-1.55-.68,1.71,1.71,0,0,0-.66.12L19.62.22A.4.4,0,0,0,19.28,0H13.05a.38.38,0,0,0-.34.22L9.59,5.61a.47.47,0,0,0,0,.4l3,5.2-2.86,5h-6l-2.87-5,2-3.48A2.1,2.1,0,1,0,1.87,5a2.17,2.17,0,0,0,.37,2.31L.06,11c-.06,0-.06.12-.06.18a.55.55,0,0,0,.06.22l3.12,5.39a.42.42,0,0,0,.37.22H9.72l3,5.17a.44.44,0,0,0,.37.22h6.23a.41.41,0,0,0,.35-.22l3.08-5.39a.47.47,0,0,0,0-.4L19.62,11a.41.41,0,0,0-.37-.22H13.3l-2.86-5,2.86-5H19l2,3.43a2.05,2.05,0,1,0,2.89.18ZM19,11.62l2.87,5-2.87,5H13.3l-2.86-5,2.86-5Z" fill="#fff"/></g></svg>