<svg xmlns="http://www.w3.org/2000/svg" viewBox="0 0 78.44 72"><polygon points="46.28 43.61 57.48 43.61 63.07 53.31 57.48 63.01 46.28 63.01 40.68 53.31 46.28 43.61" fill="#202022"/><polygon points="46.28 8.97 57.48 8.97 63.07 18.67 57.48 28.37 46.28 28.37 40.68 18.67 46.28 8.97" fill="#2196f3"/><polygon points="15.65 26.28 26.85 26.28 32.44 35.98 26.85 45.69 15.65 45.69 10.05 35.98 15.65 26.28" fill="#c51720"/><path d="M76.79,14.25a6.57,6.57,0,0,0-5-2.25,6.75,6.75,0,0,0-2.09.36L63,.67A1.32,1.32,0,0,0,61.86,0h-20a1.34,1.34,0,0,0-1.15.67L30.77,18a1.44,1.44,0,0,0,0,1.34L40.37,36,31.15,52H12.08L2.87,36,9.33,24.78a6.76,6.76,0,1,0-2.18-1.55l-7,12.09A1.33,1.33,0,0,0,0,36a1.28,1.28,0,0,0,.18.66L10.16,54a1.34,1.34,0,0,0,1.15.67H31.16L40.75,71.3a1.33,1.33,0,0,0,1.15.7h20a1.31,1.31,0,0,0,1.1-.7L73,54a1.39,1.39,0,0,0,0-1.34L63,35.32a1.32,1.32,0,0,0-1.15-.67H42.67l-9.21-16,9.21-16H61.09l6.36,11a6.62,6.62,0,1,0,9.34.6ZM61.09,37.32l9.21,16-9.21,16H42.67l-9.21-16,9.21-16Z" fill="#bebebe"/></svg>