<svg xmlns="http://www.w3.org/2000/svg" viewBox="0 0 621.47 83.46"><path d="M152.06,19.47,133.89,69.3H119.5L101.33,19.47h13.5l12,35,12-35Z" fill="#fff"/><path d="M193.2,50.53q0,9.27-5.41,14.61t-15.17,5.34q-9.78,0-15.18-5.34T152,50.53q0-9.33,5.44-14.66t15.14-5.32q9.84,0,15.21,5.36T193.2,50.53Zm-14.83,9.14a9.43,9.43,0,0,0,1.76-3.47,20.72,20.72,0,0,0,.59-5.6,21.27,21.27,0,0,0-.61-5.56,9.48,9.48,0,0,0-1.67-3.58,5.83,5.83,0,0,0-2.58-1.94,9,9,0,0,0-3.24-.57,9.6,9.6,0,0,0-3.1.47,6.26,6.26,0,0,0-2.59,1.87,9.67,9.67,0,0,0-1.76,3.58,21.68,21.68,0,0,0-.65,5.73,21.76,21.76,0,0,0,.57,5.33,9.44,9.44,0,0,0,1.67,3.64,6.42,6.42,0,0,0,2.56,1.9,9.4,9.4,0,0,0,6.53.05A5.67,5.67,0,0,0,178.37,59.67Z" fill="#fff"/><path d="M225.3,43.2h-1.06a11,11,0,0,0-2.48-.4c-1.13-.09-2.08-.13-2.83-.13a28.94,28.94,0,0,0-4.55.33,26,26,0,0,0-4.24,1.14V69.3H198.06V31.72h12.08v5.53a25,25,0,0,1,6.92-4.54,15.21,15.21,0,0,1,5.41-1.12h1.43a13.11,13.11,0,0,1,1.4.1Z" fill="#fff"/><path d="M251.12,65.32l-2.41,1.78A19.15,19.15,0,0,1,246,68.74a17,17,0,0,1-3.68,1.18,21,21,0,0,1-4.19.39,12.76,12.76,0,0,1-9-3.31,11,11,0,0,1-3.62-8.47,11.39,11.39,0,0,1,1.84-6.73,12.38,12.38,0,0,1,5.22-4.11,29.44,29.44,0,0,1,8.3-2.15c3.3-.42,6.73-.73,10.27-.93v-.2a4.33,4.33,0,0,0-2.54-4.3,18.25,18.25,0,0,0-7.49-1.19,21.45,21.45,0,0,0-6.36,1c-2.26.7-3.87,1.25-4.86,1.62h-1.1v-9c1.27-.34,3.34-.73,6.21-1.19a54.07,54.07,0,0,1,8.62-.69q10.26,0,14.84,3.16T263,43.74V69.3h-11.9Zm0-5.85v-7.8c-1.63.13-3.39.32-5.29.55a24.39,24.39,0,0,0-4.32.82,5.81,5.81,0,0,0-2.76,1.65,4.15,4.15,0,0,0-.95,2.85,7.58,7.58,0,0,0,.2,1.9,2.82,2.82,0,0,0,1,1.4,5,5,0,0,0,1.84,1,13,13,0,0,0,3.35.31,10,10,0,0,0,3.66-.73A11.31,11.31,0,0,0,251.12,59.47Z" fill="#fff"/><path d="M328.22,69.3H315.43V35.94L306.2,57.59h-8.87l-9.24-21.65V69.3H276V19.47h14.9l11.21,25,11.18-25h14.93Z" fill="#c51720"/><path d="M359.25,65.32l-2.41,1.78a18.6,18.6,0,0,1-2.71,1.64,17,17,0,0,1-3.68,1.18,21,21,0,0,1-4.18.39,12.81,12.81,0,0,1-9-3.31,11,11,0,0,1-3.62-8.47,11.46,11.46,0,0,1,1.84-6.73,12.27,12.27,0,0,1,5.23-4.11A29.31,29.31,0,0,1,349,45.54c3.31-.42,6.73-.73,10.28-.93v-.2a4.32,4.32,0,0,0-2.55-4.3,18.25,18.25,0,0,0-7.49-1.19,21.45,21.45,0,0,0-6.36,1c-2.25.7-3.87,1.25-4.85,1.62h-1v-9c1.28-.34,3.34-.73,6.21-1.19a54.07,54.07,0,0,1,8.62-.69q10.28,0,14.84,3.16t4.57,9.93V69.3h-12Zm0-5.85v-7.8c-1.63.13-3.39.32-5.29.55a24.28,24.28,0,0,0-4.31.82,5.81,5.81,0,0,0-2.76,1.65,4.13,4.13,0,0,0-1,2.85,7.58,7.58,0,0,0,.2,1.9,2.82,2.82,0,0,0,1,1.4,4.93,4.93,0,0,0,1.84,1,13,13,0,0,0,3.34.31,10,10,0,0,0,3.67-.73A11.64,11.64,0,0,0,359.25,59.47Z" fill="#c51720"/><path d="M405.75,43.2h-1.07a10.89,10.89,0,0,0-2.47-.4c-1.14-.09-2.08-.13-2.84-.13a28.73,28.73,0,0,0-4.54.33,25.05,25.05,0,0,0-4.24,1.14V69.3H378.51V31.72h12.08v5.53a25,25,0,0,1,6.91-4.54,15.21,15.21,0,0,1,5.41-1.12h1.43a13.51,13.51,0,0,1,1.41.1Z" fill="#c51720"/><path d="M448.69,69.3h-14L424.14,53l-3.26,4V69.3H408.8V17.23h12.08V48.29l12.95-16.57h13.89l-13.5,16.2Z" fill="#c51720"/><path d="M488,52.74H460.45a8.68,8.68,0,0,0,3.36,6.76q3.1,2.34,9.12,2.34a20.57,20.57,0,0,0,7.4-1.37A23.35,23.35,0,0,0,486,57.52h1.33V67.2a45,45,0,0,1-7.69,2.37,40.59,40.59,0,0,1-8,.74q-11.31,0-17.34-5.09t-6-14.49q0-9.3,5.71-14.74t15.64-5.44q9.17,0,13.79,4.64T488,48.52Zm-12-7.06A8.47,8.47,0,0,0,474.17,40q-1.77-1.91-5.52-1.91a8.75,8.75,0,0,0-5.72,1.81c-1.5,1.2-2.33,3.13-2.51,5.79Z" fill="#c51720"/><path d="M516.79,69a34,34,0,0,1-4.12.79,41.14,41.14,0,0,1-5.32.28q-7,0-10.46-2.84t-3.43-9.74V39.89h-4.95V31.72h4.95V21h12.08V31.72h11.25v8.17H505.54V56.68a7.09,7.09,0,0,0,.54,2.65,3.7,3.7,0,0,0,1.65,1.86,7,7,0,0,0,3.45.68,10.28,10.28,0,0,0,2.46-.4,9.76,9.76,0,0,0,2.11-.73h1Z" fill="#c51720"/><path d="M532.63,26.37H519.88V17.23h12.75Zm-.34,42.93H520.21V31.72h12.08Z" fill="#c51720"/><path d="M577.62,69.3H565.53V50.66a42.81,42.81,0,0,0-.23-4.53,9.56,9.56,0,0,0-.8-3.33,4,4,0,0,0-2-1.81,9.19,9.19,0,0,0-3.6-.57,11.1,11.1,0,0,0-3.33.54A18,18,0,0,0,552,42.67V69.3H539.87V31.72H552v4.15A31.38,31.38,0,0,1,558.11,32a15.8,15.8,0,0,1,6.57-1.33q6.09,0,9.51,3.54t3.43,10.61Z" fill="#c51720"/><path d="M621.47,65A23.3,23.3,0,0,1,620,73.9a13.27,13.27,0,0,1-4.22,5.65,17,17,0,0,1-6.54,3,37.57,37.57,0,0,1-8.65.92,64.08,64.08,0,0,1-7.71-.47,56.57,56.57,0,0,1-6.58-1.14v-9.4h1.47A37.12,37.12,0,0,0,593.11,74a25.91,25.91,0,0,0,5.68.72,19.49,19.49,0,0,0,5.43-.62,7.13,7.13,0,0,0,3.19-1.76,6.17,6.17,0,0,0,1.51-2.74,15.41,15.41,0,0,0,.46-4v-.7a18,18,0,0,1-4.81,2.81,15.92,15.92,0,0,1-5.88,1q-7.89,0-12.17-4.75T582.25,49.5a22.24,22.24,0,0,1,1.3-8,17.86,17.86,0,0,1,3.67-5.89A15.33,15.33,0,0,1,592.66,32a17.37,17.37,0,0,1,6.6-1.3,19.86,19.86,0,0,1,5.53.72,17.47,17.47,0,0,1,4.53,2l.43-1.68h11.72Zm-12.09-7.53v-17a11.68,11.68,0,0,0-2.53-.68,16.36,16.36,0,0,0-2.71-.25q-4.74,0-7.11,2.72t-2.37,7.62q0,5.41,2,7.56c1.35,1.43,3.34,2.14,6,2.14A11.21,11.21,0,0,0,606.2,59a13.57,13.57,0,0,0,3.18-1.55Z" fill="#c51720"/><polygon points="46.28 43.61 57.48 43.61 63.07 53.31 57.48 63.01 46.28 63.01 40.68 53.31 46.28 43.61" fill="#1b52bf"/><polygon points="46.28 8.97 57.48 8.97 63.07 18.67 57.48 28.37 46.28 28.37 40.68 18.67 46.28 8.97" fill="#eaaa00"/><polygon points="15.65 26.28 26.85 26.28 32.44 35.98 26.85 45.69 15.65 45.69 10.05 35.98 15.65 26.28" fill="#c51720"/><path d="M76.79,14.25a6.57,6.57,0,0,0-5-2.25,6.75,6.75,0,0,0-2.09.36L63,.67A1.32,1.32,0,0,0,61.86,0h-20a1.32,1.32,0,0,0-1.15.67L30.77,18a1.39,1.39,0,0,0,0,1.34L40.37,36,31.15,52H12.08L2.87,36,9.33,24.78a6.77,6.77,0,1,0-2.18-1.55l-7,12.09A1.33,1.33,0,0,0,0,36a1.28,1.28,0,0,0,.18.66L10.16,54a1.32,1.32,0,0,0,1.15.67H31.16L40.75,71.3a1.33,1.33,0,0,0,1.15.7h20a1.32,1.32,0,0,0,1.1-.7L73,54a1.39,1.39,0,0,0,0-1.34L63,35.32a1.32,1.32,0,0,0-1.15-.67H42.67l-9.21-16,9.21-16H61.09l6.36,11a6.62,6.62,0,1,0,9.34.6ZM61.09,37.32l9.21,16-9.21,16H42.67l-9.21-16,9.21-16Z" fill="#fff"/></svg>