<svg xmlns="http://www.w3.org/2000/svg" viewBox="0 0 456.3 72"><path d="M152.1,19.5,133.9,69.3H119.5L101.3,19.5h13.5l12,35,12-35Z" fill="#fff"/><path d="M193.2,50.5c0,6.2-1.8,11-5.4,14.6s-8.7,5.3-15.2,5.3-11.6-1.8-15.2-5.3S152,56.7,152,50.5s1.8-11.1,5.4-14.7,8.7-5.3,15.1-5.3c6.6,0,11.6,1.8,15.2,5.4S193.2,44.4,193.2,50.5Zm-14.8,9.2a10.56,10.56,0,0,0,1.8-3.5,26,26,0,0,0,.6-5.6,26.66,26.66,0,0,0-.6-5.6,9.93,9.93,0,0,0-1.7-3.6,6.06,6.06,0,0,0-2.6-1.9,8.66,8.66,0,0,0-3.2-.6,8.08,8.08,0,0,0-3.1.5,6.06,6.06,0,0,0-2.6,1.9,12.16,12.16,0,0,0-1.8,3.6,18.46,18.46,0,0,0-.6,5.7,23.28,23.28,0,0,0,.6,5.3,9.21,9.21,0,0,0,1.7,3.6,7,7,0,0,0,2.6,1.9,9.74,9.74,0,0,0,3.4.6,8.15,8.15,0,0,0,3.1-.6A5.35,5.35,0,0,0,178.4,59.7Z" fill="#fff"/><path d="M225.3,43.2h-1.1a10.05,10.05,0,0,0-2.5-.4c-1.1-.1-2.1-.1-2.8-.1a36.71,36.71,0,0,0-4.6.3,28.76,28.76,0,0,0-4.2,1.1V69.3H198V31.7h12.1v5.5a24.16,24.16,0,0,1,6.9-4.5,14.47,14.47,0,0,1,5.4-1.1h1.4c.5,0,1,.1,1.4.1Z" fill="#fff"/><path d="M251.1,65.3l-2.4,1.8a19.1,19.1,0,0,1-2.7,1.6,22.85,22.85,0,0,1-3.7,1.2,19.92,19.92,0,0,1-4.2.4,13,13,0,0,1-9-3.3,11.06,11.06,0,0,1-3.6-8.5,11.29,11.29,0,0,1,1.8-6.7,12.38,12.38,0,0,1,5.2-4.1,32.76,32.76,0,0,1,8.3-2.2c3.3-.4,6.7-.7,10.3-.9v-.2a4.31,4.31,0,0,0-2.5-4.3,19.06,19.06,0,0,0-7.5-1.2,19.91,19.91,0,0,0-6.4,1c-2.3.7-3.9,1.2-4.9,1.6h-1.1v-9c1.3-.3,3.3-.7,6.2-1.2a49.89,49.89,0,0,1,8.6-.7c6.8,0,11.8,1.1,14.8,3.2s4.6,5.4,4.6,9.9V69.3H251v-4Zm0-5.8V51.7c-1.6.1-3.4.3-5.3.5a20.42,20.42,0,0,0-4.3.8,6.24,6.24,0,0,0-2.8,1.7,3.66,3.66,0,0,0-.9,2.8,12.25,12.25,0,0,0,.2,1.9,2.81,2.81,0,0,0,1,1.4,4.6,4.6,0,0,0,1.8,1,12.68,12.68,0,0,0,3.4.3,11.56,11.56,0,0,0,3.7-.7A11.76,11.76,0,0,0,251.1,59.5Z" fill="#fff"/><path d="M315.9,53.6a14.31,14.31,0,0,1-6.2,12c-4.2,3.1-9.8,4.6-17,4.6a48.89,48.89,0,0,1-10.8-1.1,53.94,53.94,0,0,1-8.6-2.8v-12h1.4a31,31,0,0,0,8.9,4.9,26.93,26.93,0,0,0,12.6,1.5,10.76,10.76,0,0,0,3.1-.7,7.48,7.48,0,0,0,2.4-1.5,3.78,3.78,0,0,0,1-2.7,3.5,3.5,0,0,0-1.4-2.8,10.1,10.1,0,0,0-4.1-1.8c-1.9-.5-3.9-.9-5.9-1.3a56.58,56.58,0,0,1-5.9-1.5c-4.2-1.3-7.2-3.2-9-5.5a13.73,13.73,0,0,1-2.8-8.7c0-4.7,2.1-8.5,6.2-11.4s9.5-4.4,16-4.4a45,45,0,0,1,9.7,1,41.3,41.3,0,0,1,8.3,2.4V33.3h-1.4a25.23,25.23,0,0,0-7.4-4,25,25,0,0,0-8.9-1.6c-1.1,0-2.2.1-3.2.2a10.89,10.89,0,0,0-3.1.8,4.82,4.82,0,0,0-2.2,1.5,3.34,3.34,0,0,0-.9,2.3,3.56,3.56,0,0,0,1.5,3,16.68,16.68,0,0,0,5.7,1.9l5.3,1.1a47.75,47.75,0,0,1,5.4,1.5,19.84,19.84,0,0,1,8.5,5.1A13.37,13.37,0,0,1,315.9,53.6Z" fill="#c51720"/><path d="M343,65.3l-2.4,1.8a19.1,19.1,0,0,1-2.7,1.6,22.85,22.85,0,0,1-3.7,1.2,19.92,19.92,0,0,1-4.2.4,13,13,0,0,1-9-3.3,11.06,11.06,0,0,1-3.6-8.5,11.29,11.29,0,0,1,1.8-6.7,12.38,12.38,0,0,1,5.2-4.1,32.76,32.76,0,0,1,8.3-2.2c3.3-.4,6.7-.7,10.3-.9v-.2a4.31,4.31,0,0,0-2.5-4.3,19.06,19.06,0,0,0-7.5-1.2,19.91,19.91,0,0,0-6.4,1c-2.3.7-3.9,1.2-4.9,1.6h-1.1v-9c1.3-.3,3.3-.7,6.2-1.2a49.09,49.09,0,0,1,8.6-.7c6.9,0,11.8,1.1,14.9,3.2s4.6,5.4,4.6,9.9V69.3H343Zm0-5.8V51.7c-1.6.1-3.4.3-5.3.5a20.42,20.42,0,0,0-4.3.8,6.24,6.24,0,0,0-2.8,1.7,4.19,4.19,0,0,0-1,2.8,12.25,12.25,0,0,0,.2,1.9,2.81,2.81,0,0,0,1,1.4,4.6,4.6,0,0,0,1.8,1,12.68,12.68,0,0,0,3.4.3,11.56,11.56,0,0,0,3.7-.7A10.91,10.91,0,0,0,343,59.5Z" fill="#c51720"/><path d="M374.3,69.3H362.2V17.2h12.1Z" fill="#c51720"/><path d="M418.9,52.7H391.3a8.72,8.72,0,0,0,3.4,6.8c2.1,1.6,5.1,2.3,9.1,2.3a21.11,21.11,0,0,0,7.4-1.4,22.27,22.27,0,0,0,5.7-3h1.3v9.7a52.75,52.75,0,0,1-7.7,2.4,35.56,35.56,0,0,1-8,.7c-7.5,0-13.3-1.7-17.3-5.1s-6-8.2-6-14.5,1.9-11.1,5.7-14.7,9-5.4,15.6-5.4c6.1,0,10.7,1.5,13.8,4.6s4.6,7.5,4.6,13.3Zm-12-7A8.37,8.37,0,0,0,405,40c-1.2-1.3-3-1.9-5.5-1.9a8.83,8.83,0,0,0-5.7,1.8c-1.5,1.2-2.3,3.1-2.5,5.8Z" fill="#c51720"/><path d="M456.3,57.4a11.17,11.17,0,0,1-5.2,9.4c-3.5,2.4-8.2,3.6-14.3,3.6a46,46,0,0,1-9.1-.9,38.94,38.94,0,0,1-6.6-2.1V57.5h1.1c.6.4,1.3.9,2.1,1.4a21.1,21.1,0,0,0,3.4,1.6,22.53,22.53,0,0,0,4.2,1.3,17.68,17.68,0,0,0,5.1.5,12.91,12.91,0,0,0,5.2-.8,2.46,2.46,0,0,0,1.7-2.3,2,2,0,0,0-1-2,12.94,12.94,0,0,0-3.8-1.2c-.9-.2-2.1-.4-3.6-.7a31.48,31.48,0,0,1-4.2-.9,14.4,14.4,0,0,1-7.6-4.2,10.23,10.23,0,0,1-2.5-7q0-5.4,5.1-9c3.4-2.4,8.1-3.6,14-3.6a37.24,37.24,0,0,1,8.1.9,29.77,29.77,0,0,1,6,1.8v9.5h-1a24.31,24.31,0,0,0-13-4.2,13.62,13.62,0,0,0-4.9.8c-1.3.5-2,1.3-2,2.3a2.52,2.52,0,0,0,.9,2,13,13,0,0,0,4.2,1.4c1.2.2,2.5.5,4,.7a32.9,32.9,0,0,1,4.3.9,13.58,13.58,0,0,1,7,3.9A9.81,9.81,0,0,1,456.3,57.4Z" fill="#c51720"/><polygon points="46.3 43.6 57.5 43.6 63.1 53.3 57.5 63 46.3 63 40.7 53.3 46.3 43.6" fill="#1b52bf"/><polygon points="46.3 9 57.5 9 63.1 18.7 57.5 28.4 46.3 28.4 40.7 18.7 46.3 9" fill="#eaaa00"/><polygon points="15.6 26.3 26.9 26.3 32.4 36 26.9 45.7 15.6 45.7 10.1 36 15.6 26.3" fill="#c51720"/><path d="M76.8,14.2a6.82,6.82,0,0,0-5-2.2,5.22,5.22,0,0,0-2.1.4L63,.7A1.36,1.36,0,0,0,61.9,0h-20a1.23,1.23,0,0,0-1.1.7L30.8,18a1.48,1.48,0,0,0,0,1.3L40.4,36,31.2,52H12.1L2.9,36,9.4,24.8A6.74,6.74,0,1,0,6,15.9a6.92,6.92,0,0,0,1.2,7.4L.2,35.4c-.2.1-.2.4-.2.6a1.85,1.85,0,0,0,.2.7L10.2,54a1.39,1.39,0,0,0,1.2.7H31.2l9.6,16.6A1.39,1.39,0,0,0,42,72H62a1.23,1.23,0,0,0,1.1-.7L73,54a1.48,1.48,0,0,0,0-1.3L63,35.3a1.39,1.39,0,0,0-1.2-.7H42.7l-9.2-16,9.2-16H61.1l6.4,11a6.59,6.59,0,1,0,9.3.6ZM61.1,37.3l9.2,16-9.2,16H42.7l-9.2-16,9.2-16Z" fill="#fff"/></svg>