<?xml version="1.0" encoding="utf-8"?>
<!-- Generator: Adobe Illustrator 25.0.0, SVG Export Plug-In . SVG Version: 6.00 Build 0)  -->
<svg version="1.1" id="Layer_1" xmlns="http://www.w3.org/2000/svg" xmlns:xlink="http://www.w3.org/1999/xlink" x="0px" y="0px"
	 viewBox="0 0 456.3 72" style="enable-background:new 0 0 456.3 72;" xml:space="preserve">
<style type="text/css">
	.st0{fill:#5E5E5E;}
	.st1{fill:#C51720;}
	.st2{fill:#202022;}
	.st3{fill:#2196F3;}
	.st4{fill:#BEBEBE;}
</style>
<path class="st0" d="M152.1,19.5l-18.2,49.8h-14.4l-18.2-49.8h13.5l12,35l12-35L152.1,19.5z"/>
<path class="st0" d="M193.2,50.5c0,6.2-1.8,11-5.4,14.6c-3.6,3.6-8.7,5.3-15.2,5.3c-6.5,0-11.6-1.8-15.2-5.3s-5.4-8.4-5.4-14.6
	c0-6.2,1.8-11.1,5.4-14.7c3.6-3.6,8.7-5.3,15.1-5.3c6.6,0,11.6,1.8,15.2,5.4S193.2,44.4,193.2,50.5z M178.4,59.7
	c0.8-1,1.4-2.2,1.8-3.5c0.4-1.8,0.6-3.7,0.6-5.6c0-1.9-0.2-3.7-0.6-5.6c-0.3-1.3-0.9-2.5-1.7-3.6c-0.7-0.9-1.6-1.5-2.6-1.9
	c-1-0.4-2.1-0.6-3.2-0.6c-1.1,0-2.1,0.1-3.1,0.5c-1,0.4-1.9,1-2.6,1.9c-0.8,1.1-1.4,2.3-1.8,3.6c-0.5,1.9-0.7,3.8-0.6,5.7
	c0,1.8,0.2,3.6,0.6,5.3c0.3,1.3,0.9,2.6,1.7,3.6c0.7,0.8,1.6,1.5,2.6,1.9c1.1,0.4,2.2,0.6,3.4,0.6c1.1,0,2.1-0.2,3.1-0.6
	C176.8,61.2,177.7,60.5,178.4,59.7z"/>
<path class="st0" d="M225.3,43.2h-1.1c-0.8-0.2-1.6-0.4-2.5-0.4c-1.1-0.1-2.1-0.1-2.8-0.1c-1.5,0-3,0.1-4.6,0.3
	c-1.4,0.3-2.9,0.6-4.2,1.1v25.2h-12.1V31.7h12.1v5.5c2-1.9,4.4-3.4,6.9-4.5c1.7-0.7,3.6-1.1,5.4-1.1h1.4c0.5,0,1,0.1,1.4,0.1
	L225.3,43.2z"/>
<path class="st0" d="M251.1,65.3l-2.4,1.8c-0.9,0.6-1.8,1.2-2.7,1.6c-1.2,0.5-2.4,0.9-3.7,1.2c-1.4,0.3-2.8,0.4-4.2,0.4
	c-3.3,0.1-6.5-1.1-9-3.3c-2.4-2.2-3.7-5.3-3.6-8.5c-0.1-2.4,0.5-4.7,1.8-6.7c1.3-1.8,3.1-3.2,5.2-4.1c2.6-1.1,5.4-1.8,8.3-2.2
	c3.3-0.4,6.7-0.7,10.3-0.9v-0.2c0.2-1.8-0.9-3.6-2.5-4.3c-2.4-0.9-4.9-1.3-7.5-1.2c-2.2,0-4.3,0.3-6.4,1c-2.3,0.7-3.9,1.2-4.9,1.6
	h-1.1v-9c1.3-0.3,3.3-0.7,6.2-1.2c2.9-0.5,5.7-0.7,8.6-0.7c6.8,0,11.8,1.1,14.8,3.2s4.6,5.4,4.6,9.9v25.6h-11.9V65.3z M251.1,59.5
	v-7.8c-1.6,0.1-3.4,0.3-5.3,0.5c-1.5,0.1-2.9,0.4-4.3,0.8c-1.1,0.3-2,0.9-2.8,1.7c-0.7,0.8-1,1.8-0.9,2.8c0,0.6,0.1,1.3,0.2,1.9
	c0.2,0.6,0.5,1,1,1.4c0.5,0.5,1.2,0.8,1.8,1c1.1,0.2,2.2,0.4,3.4,0.3c1.3,0,2.5-0.3,3.7-0.7C249,61,250.1,60.3,251.1,59.5z"/>
<path class="st1" d="M315.9,53.6c0.1,4.8-2.3,9.3-6.2,12c-4.2,3.1-9.8,4.6-17,4.6c-3.6,0-7.3-0.3-10.8-1.1c-2.9-0.7-5.8-1.6-8.6-2.8
	v-12h1.4c2.7,2.1,5.7,3.8,8.9,4.9c4,1.5,8.3,2,12.6,1.5c1.1-0.1,2.1-0.3,3.1-0.7c0.9-0.3,1.7-0.9,2.4-1.5c0.7-0.7,1-1.7,1-2.7
	c0-1.1-0.5-2.1-1.4-2.8c-1.2-0.9-2.6-1.5-4.1-1.8c-1.9-0.5-3.9-0.9-5.9-1.3c-2-0.4-4-0.9-5.9-1.5c-4.2-1.3-7.2-3.2-9-5.5
	c-1.9-2.5-2.9-5.6-2.8-8.7c0-4.7,2.1-8.5,6.2-11.4s9.5-4.4,16-4.4c3.3,0,6.5,0.3,9.7,1c2.8,0.5,5.6,1.3,8.3,2.4v11.5h-1.4
	c-2.2-1.7-4.7-3.1-7.4-4c-2.9-1.1-5.9-1.6-8.9-1.6c-1.1,0-2.2,0.1-3.2,0.2c-1.1,0.1-2.1,0.4-3.1,0.8c-0.9,0.3-1.6,0.8-2.2,1.5
	c-0.6,0.6-0.9,1.5-0.9,2.3c0,1.2,0.5,2.3,1.5,3c1.8,1,3.7,1.6,5.7,1.9l5.3,1.1c1.8,0.4,3.7,0.9,5.4,1.5c3.8,1.3,6.6,3,8.5,5.1
	C315,47.6,316,50.6,315.9,53.6z"/>
<path class="st1" d="M343,65.3l-2.4,1.8c-0.9,0.6-1.8,1.2-2.7,1.6c-1.2,0.5-2.4,0.9-3.7,1.2c-1.4,0.3-2.8,0.4-4.2,0.4
	c-3.3,0.1-6.5-1.1-9-3.3c-2.4-2.2-3.7-5.3-3.6-8.5c-0.1-2.4,0.5-4.7,1.8-6.7c1.3-1.8,3.1-3.2,5.2-4.1c2.6-1.1,5.4-1.8,8.3-2.2
	c3.3-0.4,6.7-0.7,10.3-0.9v-0.2c0.2-1.8-0.9-3.6-2.5-4.3c-2.4-0.9-4.9-1.3-7.5-1.2c-2.2,0-4.3,0.3-6.4,1c-2.3,0.7-3.9,1.2-4.9,1.6
	h-1.1v-9c1.3-0.3,3.3-0.7,6.2-1.2c2.8-0.5,5.7-0.7,8.6-0.7c6.9,0,11.8,1.1,14.9,3.2s4.6,5.4,4.6,9.9v25.6H343V65.3z M343,59.5v-7.8
	c-1.6,0.1-3.4,0.3-5.3,0.5c-1.5,0.1-2.9,0.4-4.3,0.8c-1.1,0.3-2,0.9-2.8,1.7c-0.7,0.8-1,1.8-1,2.8c0,0.6,0.1,1.3,0.2,1.9
	c0.2,0.6,0.5,1,1,1.4c0.5,0.5,1.2,0.8,1.8,1c1.1,0.2,2.2,0.4,3.4,0.3c1.3,0,2.5-0.3,3.7-0.7C340.9,61,342,60.3,343,59.5z"/>
<path class="st1" d="M374.3,69.3h-12.1V17.2h12.1L374.3,69.3z"/>
<path class="st1" d="M418.9,52.7h-27.6c0,2.7,1.3,5.1,3.4,6.8c2.1,1.6,5.1,2.3,9.1,2.3c2.5,0,5-0.5,7.4-1.4c2-0.7,3.9-1.7,5.7-3h1.3
	v9.7c-2.5,1-5.1,1.8-7.7,2.4c-2.6,0.5-5.3,0.8-8,0.7c-7.5,0-13.3-1.7-17.3-5.1c-4-3.4-6-8.2-6-14.5c0-6.2,1.9-11.1,5.7-14.7
	c3.8-3.6,9-5.4,15.6-5.4c6.1,0,10.7,1.5,13.8,4.6s4.6,7.5,4.6,13.3L418.9,52.7z M406.9,45.7c0.1-2.1-0.6-4.1-1.9-5.7
	c-1.2-1.3-3-1.9-5.5-1.9c-2.1-0.1-4.1,0.6-5.7,1.8c-1.5,1.2-2.3,3.1-2.5,5.8L406.9,45.7z"/>
<path class="st1" d="M456.3,57.4c0,3.8-2,7.4-5.2,9.4c-3.5,2.4-8.2,3.6-14.3,3.6c-3.1,0-6.1-0.3-9.1-0.9c-2.3-0.5-4.4-1.2-6.6-2.1
	v-9.9h1.1c0.6,0.4,1.3,0.9,2.1,1.4c1.1,0.6,2.2,1.2,3.4,1.6c1.4,0.6,2.8,1,4.2,1.3c1.7,0.4,3.4,0.6,5.1,0.5c1.8,0.1,3.6-0.2,5.2-0.8
	c1-0.3,1.7-1.3,1.7-2.3c0.1-0.8-0.3-1.6-1-2c-1.2-0.6-2.5-1-3.8-1.2c-0.9-0.2-2.1-0.4-3.6-0.7c-1.4-0.2-2.8-0.5-4.2-0.9
	c-2.9-0.6-5.5-2-7.6-4.2c-1.7-2-2.6-4.5-2.5-7c0-3.6,1.7-6.6,5.1-9c3.4-2.4,8.1-3.6,14-3.6c2.7,0,5.4,0.3,8.1,0.9
	c2.1,0.4,4.1,1,6,1.8v9.5h-1c-1.9-1.3-3.9-2.3-6.1-3c-2.2-0.8-4.6-1.1-6.9-1.2c-1.7,0-3.3,0.2-4.9,0.8c-1.3,0.5-2,1.3-2,2.3
	c0,0.8,0.3,1.5,0.9,2c1.3,0.7,2.8,1.2,4.2,1.4c1.2,0.2,2.5,0.5,4,0.7s2.8,0.5,4.3,0.9c2.7,0.6,5.1,1.9,7,3.9
	C455.6,52.6,456.4,55,456.3,57.4z"/>
<g>
	<polygon class="st2" points="46.3,43.6 57.5,43.6 63.1,53.3 57.5,63 46.3,63 40.7,53.3 	"/>
	<polygon class="st3" points="46.3,9 57.5,9 63.1,18.7 57.5,28.4 46.3,28.4 40.7,18.7 	"/>
	<polygon class="st1" points="15.6,26.3 26.9,26.3 32.4,36 26.9,45.7 15.6,45.7 10.1,36 	"/>
	<path class="st4" d="M76.8,14.2c-1.3-1.4-3.1-2.2-5-2.2c-0.7,0-1.4,0.1-2.1,0.4L63,0.7C62.8,0.3,62.3,0,61.9,0h-20
		c-0.5,0-0.9,0.3-1.1,0.7L30.8,18c-0.2,0.4-0.2,0.9,0,1.3L40.4,36l-9.2,16H12.1L2.9,36l6.5-11.2c3.4,1.5,7.4,0,8.9-3.4
		c1.5-3.4,0-7.4-3.4-8.9c-3.4-1.5-7.4,0-8.9,3.4c-1.1,2.5-0.6,5.4,1.2,7.4l-7,12.1C0,35.5,0,35.8,0,36c0,0.2,0.1,0.5,0.2,0.7
		l10,17.3c0.2,0.4,0.7,0.7,1.2,0.7h19.8l9.6,16.6c0.2,0.4,0.7,0.7,1.2,0.7h20c0.5,0,0.9-0.3,1.1-0.7L73,54c0.2-0.4,0.2-0.9,0-1.3
		L63,35.3c-0.2-0.4-0.7-0.7-1.2-0.7H42.7l-9.2-16l9.2-16h18.4l6.4,11c-2.7,2.4-3,6.6-0.6,9.3c2.4,2.7,6.6,3,9.3,0.6
		C78.9,21.2,79.2,17,76.8,14.2z M61.1,37.3l9.2,16l-9.2,16H42.7l-9.2-16l9.2-16H61.1z"/>
</g>
</svg>
